<svg width="305" height="89" viewBox="0 0 305 89" fill="none" xmlns="http://www.w3.org/2000/svg">
<g clip-path="url(#clip0_8250_11452)">
<path fill-rule="evenodd" clip-rule="evenodd" d="M231.089 71.6151C231.089 71.6151 230.373 71.116 229.066 70.8664C227.335 70.5357 223.641 70.5827 222.161 67.8468C221.42 66.4646 221.519 65.3514 221.544 64.3281C221.544 64.3281 222.209 64.6716 224.031 64.8735C225.248 65.0081 231.117 64.962 231.089 71.6151Z" fill="#91D65C"/>
<path fill-rule="evenodd" clip-rule="evenodd" d="M259.429 72.1888V75.607C251.732 72.4136 252.003 83.6434 259.328 80.1749C259.328 81.2045 259.429 82.5259 259.429 83.556C244.034 88.6846 243.615 67.7718 259.427 72.1888" fill="#E62020"/>
<path d="M238.556 66.6705H233.091V84.046H238.556V66.6705Z" fill="#E62020"/>
<path d="M246.657 66.6954H240.845V70.8315H246.657V66.6954Z" fill="#E62020"/>
<path d="M246.657 72.0609H240.845V84.1326H246.657V72.0609Z" fill="#E62020"/>
<path fill-rule="evenodd" clip-rule="evenodd" d="M296.556 77.836C296.556 79.8482 295.962 80.4105 294.866 80.4105C293.77 80.4105 293.496 79.3153 293.496 79.3153V76.2681C293.496 76.2681 293.77 75.1737 294.866 75.1737C295.962 75.1737 296.556 75.7358 296.556 77.7478V77.836ZM294.853 71.9998C294.06 72.4063 293.532 72.9435 293.218 73.3428V72.0285H287.956V88.7613H293.218V82.0417C293.538 82.4431 294.074 83.0022 294.853 83.4631C296.168 84.2404 302.141 84.4131 302.333 78.8254V76.6364C302.141 71.0488 296.406 71.2031 294.853 71.9998Z" fill="#E62020"/>
<path fill-rule="evenodd" clip-rule="evenodd" d="M225.975 80.2276C225.975 80.2276 225.314 81.6145 223.781 81.6145C222.249 81.6145 221.558 77.9702 225.975 78.7123V80.2276ZM225.663 76.7307C225.663 76.7307 220.697 75.4054 218.61 78.1534C216.67 80.7084 217.641 83.8918 221.027 84.2423C224.159 84.5668 225.824 82.6392 225.824 82.6392L225.873 82.5968V84.0428H231.159V76.1361C231.159 76.1361 231.081 72.884 226.937 72.071C224.387 71.5712 219.892 72.1389 219.078 72.5634L219.029 75.7328C219.029 75.7328 220.85 74.7824 223.369 74.8345C224.578 74.8595 225.935 75.1092 225.836 76.7063L225.663 76.7307Z" fill="#E62020"/>
<path fill-rule="evenodd" clip-rule="evenodd" d="M283.078 72.5882C282.462 73.1122 282.117 73.6614 281.944 74.1603L281.945 72.0283H276.439V84.2072H282.241V79.3822C282.289 77.1803 283.379 76.6169 283.941 76.3566C284.756 75.9805 286.444 76.0319 286.444 76.0319V71.8031C284.385 71.715 283.627 72.123 283.078 72.5882Z" fill="#E62020"/>
<path fill-rule="evenodd" clip-rule="evenodd" d="M267.728 80.6737C266.49 80.6737 266.307 79.9181 266.307 77.6972C266.307 75.4782 266.542 75.0337 267.728 75.0337C268.916 75.0337 269.119 75.4782 269.119 77.6972C269.121 79.9179 268.97 80.6737 267.729 80.6737H267.728ZM267.88 71.7131C263.757 71.7131 260.415 73.4533 260.415 77.9473C260.415 82.7952 264.608 84.1821 267.88 84.1821C271.563 84.1821 275.345 82.72 275.345 77.9473C275.345 73.3387 272.001 71.7131 267.88 71.7131Z" fill="#E62020"/>
</g>
<path d="M70.5658 57.6499C69.2149 57.6499 68.2277 57.2862 67.6042 56.5587C66.9807 55.866 66.6689 54.4631 66.6689 52.3501C66.6689 50.5489 66.9633 48.2108 67.5522 45.3358C68.1411 42.4608 68.7992 39.3606 69.5266 36.0353C65.6817 40.3305 61.2479 43.0669 56.2253 44.2447C55.2208 46.323 54.0431 48.2281 52.6922 49.9601C51.3413 51.692 49.8691 53.0949 48.2757 54.1687C46.717 55.2078 45.089 55.7274 43.3917 55.7274C41.2787 55.7274 39.4602 55.0346 37.9361 53.6491C36.4466 52.2635 35.7018 50.1333 35.7018 47.2582C35.7018 45.3185 35.9963 43.6731 36.5851 42.3222C37.174 40.9367 37.8495 39.8975 38.6115 39.2047C37.988 37.8884 37.6763 36.3817 37.6763 34.6844C37.6763 32.3982 38.2998 30.3718 39.5468 28.6053C40.7937 26.8387 42.4391 25.4531 44.4828 24.4486C46.5611 23.4441 48.8126 22.9418 51.2373 22.9418C52.5883 22.9418 53.8699 23.2882 55.0822 23.981C56.3292 24.6391 57.3338 25.661 58.0958 27.0465C58.8925 28.3974 59.2909 30.112 59.2909 32.1904C59.2909 33.9223 59.0311 35.8274 58.5115 37.9058C60.9708 36.4509 63.3955 34.4592 65.7856 31.9306C68.2103 29.4019 70.3753 26.5616 72.2804 23.4094C72.8693 22.4742 73.7006 22.0066 74.7744 22.0066C75.675 22.0066 76.3851 22.2837 76.9047 22.8379C77.4589 23.3575 77.736 24.0503 77.736 24.9162C77.736 25.0894 77.6321 25.661 77.4242 26.6308C77.2164 27.6007 76.9393 28.865 76.5929 30.4238C76.2465 31.9479 75.8655 33.6279 75.4498 35.4637C75.0688 37.2996 74.6878 39.1701 74.3068 41.0752C73.9257 42.9803 73.5793 44.7816 73.2676 46.4789C74.1682 44.8508 75.1381 43.1189 76.1773 41.283C77.2511 39.4126 78.3595 37.5767 79.5026 35.7755C80.6457 33.9396 81.7714 32.277 82.8799 30.7875C83.9883 29.298 85.0101 28.1203 85.9454 27.2543C86.8806 26.3537 87.6773 25.9034 88.3355 25.9034C89.6517 25.9034 90.7602 26.2845 91.6608 27.0465C92.5614 27.8086 93.0117 28.5879 93.0117 29.3846C93.0117 30.1813 92.9251 31.411 92.7519 33.0737C92.5787 34.7363 92.3536 36.6068 92.0765 38.6851C91.834 40.7288 91.5742 42.7898 91.2971 44.8682C91.02 46.9465 90.7948 48.8343 90.6216 50.5316C90.4484 52.1943 90.3618 53.4413 90.3618 54.2726C90.3618 54.9654 90.0328 55.6235 89.3746 56.247C88.7165 56.8705 87.9718 57.1822 87.1404 57.1822C87.0712 57.1822 86.9499 57.1822 86.7767 57.1822C86.3611 57.2169 85.98 57.1476 85.6336 56.9744C85.2873 56.8359 84.9928 56.3163 84.7504 55.4157C84.5425 54.5151 84.4386 52.991 84.4386 50.8433C84.4386 49.3885 84.5079 47.7951 84.6464 46.0632C84.785 44.3313 84.9582 42.5993 85.166 40.8674C85.4085 39.1008 85.6683 37.4555 85.9454 35.9314C85.0448 37.4208 84.0403 39.1181 82.9318 41.0233C81.858 42.8937 80.7323 44.8162 79.5545 46.7906C78.3768 48.7304 77.2164 50.5316 76.0733 52.1943C74.9649 53.8223 73.9257 55.1386 72.9559 56.1431C72.0206 57.1476 71.2239 57.6499 70.5658 57.6499ZM51.0295 40.2958C51.4798 38.9449 51.8435 37.5421 52.1206 36.0872C52.3977 34.5978 52.5363 33.1429 52.5363 31.7227C52.5363 31.1339 52.4151 30.5623 52.1726 30.0081C51.9301 29.4539 51.5144 29.1768 50.9256 29.1768C49.7479 29.1768 48.5875 29.4193 47.4444 29.9042C46.336 30.3892 45.418 31.0819 44.6906 31.9825C43.9632 32.8831 43.5995 33.9569 43.5995 35.2039C43.5995 36.3124 43.9632 37.2476 44.6906 38.0097C45.4527 38.7717 46.3879 39.3433 47.4964 39.7243C48.6394 40.1053 49.7652 40.2958 50.8736 40.2958C50.9083 40.2958 50.9602 40.2958 51.0295 40.2958ZM48.8992 44.8682C47.6869 44.8335 46.5091 44.6776 45.3661 44.4005C44.223 44.0888 43.1838 43.6558 42.2486 43.1016C42.1447 43.6558 42.0407 44.1927 41.9368 44.7123C41.8329 45.1972 41.781 45.6649 41.781 46.1152C41.781 46.8772 41.9022 47.57 42.1447 48.1935C42.4218 48.7823 42.976 49.0768 43.8073 49.0768C44.6733 49.0768 45.5393 48.6957 46.4052 47.9337C47.3058 47.1716 48.1372 46.1498 48.8992 44.8682Z" fill="black"/>
<path d="M148.521 58C147.69 58 146.858 57.7229 146.027 57.1687C145.23 56.5798 144.572 55.7485 144.053 54.6747C143.533 53.5662 143.273 52.2326 143.273 50.6739C143.273 48.5956 143.55 46.3787 144.105 44.0233C144.694 41.6678 145.404 39.3124 146.235 36.9569C147.066 34.6015 147.88 32.3846 148.677 30.3063C149.058 29.3018 149.526 28.6263 150.08 28.2799C150.634 27.8989 151.362 27.7084 152.262 27.7084C154.306 27.7084 155.328 28.7302 155.328 30.7739C155.328 31.1203 155.172 31.7958 154.86 32.8003C154.548 33.7702 154.133 34.9652 153.613 36.3854C153.128 37.8056 152.609 39.347 152.054 41.0097C151.535 42.6377 151.05 44.3004 150.599 45.9977C150.184 47.6603 149.855 49.2364 149.612 50.7259C150.409 49.5135 151.292 48.0067 152.262 46.2055C153.267 44.3696 154.323 42.4472 155.432 40.4381C156.575 38.4291 157.718 36.5586 158.861 34.8267C160.004 33.0601 161.13 31.6226 162.238 30.5141C163.347 29.4057 164.403 28.8515 165.408 28.8515C166.274 28.8515 167.088 29.0247 167.85 29.3711C168.646 29.6828 169.339 30.3063 169.928 31.2415C170.517 32.1422 170.967 33.4411 171.279 35.1384C171.625 36.8357 171.798 39.0699 171.798 41.841C171.798 43.2266 171.92 44.5775 172.162 45.8937C172.439 47.1754 172.89 48.2492 173.513 49.1152C174.137 49.9465 175.02 50.3622 176.163 50.3622C178.137 50.3622 179.904 49.9984 181.463 49.271C183.021 48.5436 184.39 47.695 185.567 46.7251C186.745 45.7552 187.732 44.9065 188.529 44.1791C189.014 43.6942 189.43 43.3132 189.776 43.036C190.157 42.7589 190.469 42.6204 190.711 42.6204C191.439 42.6204 191.958 42.8109 192.27 43.1919C192.616 43.573 192.789 44.0925 192.789 44.7507C192.789 45.0971 192.495 45.7379 191.906 46.6731C191.317 47.6084 190.486 48.6822 189.412 49.8945C188.373 51.0722 187.178 52.2153 185.827 53.3238C184.476 54.4322 183.021 55.3501 181.463 56.0775C179.904 56.805 178.31 57.1687 176.682 57.1687C173.946 57.1687 171.677 56.6837 169.876 55.7138C168.109 54.7093 166.793 53.0467 165.927 50.7259C165.061 48.3704 164.628 45.1663 164.628 41.1136C164.628 41.0097 164.628 40.8365 164.628 40.594C164.628 39.5202 164.611 38.5676 164.576 37.7363C164.576 36.905 164.524 36.2295 164.42 35.7099C163.831 36.7838 163.121 38.0654 162.29 39.5549C161.493 41.0443 160.627 42.6377 159.692 44.335C158.757 45.9977 157.787 47.643 156.782 49.271C155.778 50.8644 154.773 52.3192 153.769 53.6355C152.799 54.9518 151.864 56.0083 150.963 56.805C150.063 57.6017 149.249 58 148.521 58ZM190.175 58.7794C189.205 58.7794 188.339 58.4503 187.577 57.7922C186.85 57.134 186.486 56.0602 186.486 54.5708C186.486 53.7741 186.59 52.6483 186.798 51.1935C187.04 49.7387 187.352 48.1626 187.733 46.4653C188.114 44.7333 188.53 43.0187 188.98 41.3214C189.465 39.6241 189.932 38.1173 190.383 36.8011C190.833 35.4502 191.231 34.4456 191.578 33.7875C192.028 32.9908 192.444 32.5059 192.825 32.3327C193.24 32.1248 193.639 32.0209 194.02 32.0209C194.713 32.0209 195.353 32.2288 195.942 32.6444C196.566 33.0601 196.878 33.978 196.878 35.3982C196.878 35.9524 196.774 36.853 196.566 38.1C196.358 39.3124 196.098 40.7326 195.786 42.3606C195.475 43.9886 195.128 45.6686 194.747 47.4005C194.401 49.1325 194.054 50.7778 193.708 52.3366C193.396 53.8607 193.137 55.1423 192.929 56.1815C192.756 57.0474 192.392 57.6883 191.838 58.1039C191.318 58.5542 190.764 58.7794 190.175 58.7794ZM196.15 26.8771C195.007 26.8771 193.951 26.548 192.981 25.8899C192.011 25.1971 191.526 24.1406 191.526 22.7204C191.526 21.5427 191.82 20.5901 192.409 19.8627C192.998 19.1353 193.691 18.6157 194.487 18.304C195.319 17.9576 196.046 17.7844 196.67 17.7844C197.293 17.7844 197.986 17.9229 198.748 18.2001C199.51 18.4425 200.168 18.9101 200.722 19.6029C201.311 20.2611 201.606 21.2136 201.606 22.4606C201.606 23.292 201.311 24.054 200.722 24.7468C200.134 25.4049 199.406 25.9245 198.54 26.3055C197.709 26.6865 196.912 26.8771 196.15 26.8771Z" fill="black"/>
<path d="M221.291 30.2024C223.196 25.6647 224.876 20.9885 226.331 16.1737C226.608 15.2038 227.006 14.4591 227.526 13.9395C228.08 13.4199 228.842 13.1601 229.812 13.1601C230.609 13.1601 231.215 13.4026 231.631 13.8875C232.046 14.3378 232.254 14.9613 232.254 15.758C232.254 16.4162 231.977 17.5939 231.423 19.2912C230.868 20.9538 230.193 23.0668 229.396 25.6301C228.6 28.1933 227.803 31.155 227.006 34.5149C226.21 37.8749 225.534 41.5639 224.98 45.582C224.426 49.6001 224.149 53.8953 224.149 58.4676C224.149 59.7146 223.906 60.7365 223.421 61.5332C222.971 62.3645 222.174 62.7802 221.031 62.7802C219.784 62.7802 218.866 62.3472 218.277 61.4812C217.723 60.6152 217.446 59.5068 217.446 58.1559C217.446 55.4887 217.533 53.2718 217.706 51.5052C217.914 49.704 218.121 48.1626 218.329 46.881C216.632 49.7906 214.831 52.3019 212.926 54.4149C211.055 56.4932 209.254 58.0866 207.522 59.195C205.79 60.3381 204.301 60.9097 203.054 60.9097C201.01 60.9097 199.347 60.3381 198.066 59.195C196.784 58.052 196.143 56.32 196.143 53.9992C196.143 52.198 196.576 50.3448 197.442 48.4397C198.308 46.4999 199.451 44.5948 200.871 42.7243C202.291 40.8538 203.85 39.1045 205.548 37.4765C207.279 35.8139 209.011 34.359 210.743 33.112C212.475 31.8304 214.086 30.8259 215.575 30.0985C217.065 29.3711 218.277 29.0073 219.213 29.0073C220.252 29.0073 220.944 29.4057 221.291 30.2024ZM220.096 33.0081C219.888 33.1467 219.663 33.2852 219.42 33.4238C219.213 33.5277 219.005 33.6489 218.797 33.7875C217.481 34.6188 216.078 35.6234 214.588 36.8011C213.099 37.9442 211.627 39.2258 210.172 40.646C208.717 42.0315 207.383 43.4864 206.171 45.0105C204.993 46.4999 204.041 47.9894 203.313 49.4789C202.621 50.9337 202.274 52.3366 202.274 53.6875C202.274 53.9299 202.378 54.1031 202.586 54.2071C202.794 54.311 202.984 54.3629 203.157 54.3629C204.37 54.3629 205.669 53.826 207.054 52.7522C208.474 51.6784 209.912 50.189 211.367 48.2838C212.856 46.3441 214.328 44.0752 215.783 41.4773C217.273 38.8794 218.71 36.0563 220.096 33.0081Z" fill="black"/>
<path d="M135.368 60.3381C134.572 60.3381 133.844 60.009 133.186 59.3509C132.563 58.7274 132.251 57.6709 132.251 56.1815C132.251 55.073 132.337 53.5316 132.511 51.5572C132.719 49.5481 133.1 46.9676 133.654 43.8154C132.441 46.3094 131.177 48.5263 129.861 50.4661C128.545 52.4058 127.246 53.9299 125.964 55.0384C124.717 56.1122 123.522 56.6491 122.379 56.6491C120.543 56.6491 119.088 56.0949 118.014 54.9864C116.941 53.8433 116.404 51.7131 116.404 48.5956C116.404 47.1061 116.525 45.4261 116.767 43.5556C117.044 41.6851 117.391 39.8146 117.807 37.9442C118.222 36.0737 118.638 34.411 119.054 32.9562C119.504 31.4667 119.902 30.3583 120.249 29.6308C120.526 29.0073 120.872 28.5224 121.288 28.176C121.738 27.8296 122.31 27.6564 123.002 27.6564C124.111 27.6564 124.959 28.0201 125.548 28.7476C126.137 29.475 126.432 30.2197 126.432 30.9818C126.432 31.5706 126.293 32.4193 126.016 33.5277C125.773 34.6361 125.462 35.8658 125.081 37.2167C124.734 38.5676 124.371 39.9532 123.99 41.3734C123.609 42.7936 123.279 44.1272 123.002 45.3742C122.76 46.6212 122.639 47.6776 122.639 48.5436C122.639 49.6174 123.054 50.1543 123.886 50.1543C124.371 50.1543 124.994 49.6867 125.756 48.7514C126.553 47.8162 127.384 46.5692 128.25 45.0105C129.151 43.4171 130.051 41.6851 130.952 39.8146C131.887 37.9095 132.736 35.9871 133.498 34.0473C134.295 32.0729 134.97 30.2543 135.524 28.5917C135.871 27.5525 136.338 26.8251 136.927 26.4094C137.516 25.9938 138.191 25.7859 138.953 25.7859C140.131 25.7859 141.032 26.115 141.655 26.7731C142.313 27.4313 142.643 28.3665 142.643 29.5789C142.643 30.1331 142.556 31.0684 142.383 32.3846C142.21 33.7009 141.984 35.2423 141.707 37.0089C141.465 38.7755 141.17 40.646 140.824 42.6204C140.478 44.5948 140.131 46.5346 139.785 48.4397C139.473 50.3448 139.161 52.0941 138.85 53.6875C138.538 55.2462 138.278 56.4932 138.07 57.4285C137.724 58.814 137.308 59.6453 136.823 59.9225C136.338 60.1996 135.853 60.3381 135.368 60.3381Z" fill="black"/>
<path d="M110.966 57.4219C110.758 59.2924 109.649 60.2276 107.64 60.2276C106.601 60.2276 105.77 59.9159 105.146 59.2924C104.557 58.6689 104.263 57.7683 104.263 56.5906C104.263 54.5815 104.349 52.4339 104.523 50.1477C104.731 47.827 104.973 45.4888 105.25 43.1334C105.562 40.778 105.856 38.5264 106.133 36.3788C104.886 38.1801 103.57 40.0332 102.185 41.9384C100.799 43.8435 99.4135 45.6967 98.0279 47.4979C96.6424 49.2991 95.3088 50.9271 94.0271 52.3819C92.7801 53.8021 91.6371 54.9452 90.5979 55.8112C89.5587 56.6425 88.6928 57.0582 88 57.0582L88.7274 49.1086C89.9051 47.7923 91.1521 46.3028 92.4684 44.6402C93.7847 42.9429 95.1356 41.1936 96.5211 39.3924C97.9067 37.5912 99.2576 35.8419 100.574 34.1446C101.925 32.4473 103.172 30.9059 104.315 29.5204C105.493 28.1348 106.532 27.0437 107.432 26.247C108.333 25.4157 109.026 25 109.511 25C110.931 25 112.039 25.381 112.836 26.1431C113.667 26.8705 114.083 28.1521 114.083 29.988C114.083 31.1311 113.996 32.6205 113.823 34.4564C113.685 36.2922 113.477 38.284 113.2 40.4316C112.957 42.5445 112.68 44.6921 112.368 46.8744C112.091 49.022 111.831 51.0137 111.589 52.8496C111.347 54.6854 111.139 56.2095 110.966 57.4219Z" fill="black"/>
<path d="M234.365 56.9744C233.257 56.9744 232.252 56.6627 231.352 56.0392C230.451 55.4503 229.741 54.6709 229.221 53.701C228.702 52.6965 228.442 51.6227 228.442 50.4796C228.442 48.332 228.91 46.2364 229.845 44.1927C230.815 42.149 232.079 40.2092 233.638 38.3734C235.197 36.5375 236.894 34.8576 238.73 33.3334C240.6 31.7747 242.453 30.4411 244.289 29.3327C246.16 28.2242 247.857 27.3583 249.381 26.7348C250.94 26.1113 252.152 25.7995 253.018 25.7995C254.023 25.7995 254.837 26.0247 255.46 26.475C256.118 26.8906 256.447 27.5488 256.447 28.4494C256.447 28.7265 256.378 28.9516 256.24 29.1248C256.69 29.2288 257.054 29.4885 257.331 29.9042C257.608 30.3199 257.746 30.9434 257.746 31.7747C257.746 32.1211 257.66 33.0217 257.487 34.4765C257.313 35.9314 257.123 37.6979 256.915 39.7763C256.742 41.8546 256.655 44.0195 256.655 46.271C256.655 46.6174 256.707 46.9292 256.811 47.2063C256.915 47.4487 257.14 47.57 257.487 47.57C258.872 47.57 260.275 47.2929 261.695 46.7387C263.15 46.1498 264.553 45.4397 265.904 44.6084C267.289 43.7424 268.536 42.8937 269.645 42.0624C270.788 41.1964 271.74 40.4864 272.503 39.9321C273.299 39.3433 273.819 39.0488 274.061 39.0488C275.239 39.0488 275.828 39.6377 275.828 40.8154C275.828 41.1272 275.447 41.7853 274.685 42.7898C273.957 43.7597 272.953 44.8855 271.671 46.1671C270.39 47.4141 268.952 48.6611 267.359 49.9081C265.8 51.1205 264.172 52.125 262.475 52.9217C260.812 53.7184 259.201 54.1167 257.643 54.1167C255.737 54.1167 254.283 53.6664 253.278 52.7658C252.308 51.8652 251.615 50.6528 251.2 49.1287C250.819 47.57 250.611 45.8207 250.576 43.881C248.81 46.4096 246.974 48.6611 245.069 50.6355C243.198 52.5753 241.345 54.1167 239.509 55.2598C237.673 56.4029 235.959 56.9744 234.365 56.9744ZM252.758 30.9434C249.364 32.5714 246.316 34.4419 243.614 36.5549C240.912 38.6332 238.764 40.8154 237.171 43.1016C235.612 45.3877 234.833 47.5873 234.833 49.7003C234.833 50.2891 235.11 50.5836 235.664 50.5836C236.322 50.5836 237.188 50.2025 238.262 49.4405C239.371 48.6784 240.566 47.6739 241.847 46.4269C243.129 45.1453 244.411 43.7251 245.692 42.1663C246.974 40.573 248.169 38.9449 249.277 37.2823C250.386 35.6196 251.269 34.0262 251.927 32.5021C252.17 31.9479 252.447 31.4283 252.758 30.9434ZM293.137 27.2024C295.042 22.6647 296.722 17.9885 298.177 13.1737C298.454 12.2038 298.852 11.4591 299.372 10.9395C299.926 10.4199 300.688 10.1601 301.658 10.1601C302.455 10.1601 303.061 10.4026 303.477 10.8875C303.892 11.3378 304.1 11.9613 304.1 12.758C304.1 13.4162 303.823 14.5939 303.269 16.2912C302.714 17.9538 302.039 20.0668 301.242 22.6301C300.446 25.1933 299.649 28.155 298.852 31.5149C298.056 34.8749 297.38 38.5639 296.826 42.582C296.272 46.6001 295.995 50.8953 295.995 55.4676C295.995 56.7146 295.752 57.7365 295.267 58.5332C294.817 59.3645 294.02 59.7802 292.877 59.7802C291.63 59.7802 290.712 59.3472 290.123 58.4812C289.569 57.6152 289.292 56.5068 289.292 55.1559C289.292 52.4887 289.379 50.2718 289.552 48.5052C289.76 46.704 289.967 45.1626 290.175 43.881C288.478 46.7906 286.677 49.3019 284.772 51.4149C282.901 53.4932 281.1 55.0866 279.368 56.195C277.636 57.3381 276.147 57.9097 274.9 57.9097C272.856 57.9097 271.193 57.3381 269.912 56.195C268.63 55.052 267.989 53.32 267.989 50.9992C267.989 49.198 268.422 47.3448 269.288 45.4397C270.154 43.4999 271.297 41.5948 272.717 39.7243C274.137 37.8538 275.696 36.1045 277.394 34.4765C279.125 32.8139 280.857 31.359 282.589 30.112C284.321 28.8304 285.932 27.8259 287.421 27.0985C288.911 26.3711 290.123 26.0073 291.059 26.0073C292.098 26.0073 292.79 26.4057 293.137 27.2024ZM291.942 30.0081C291.734 30.1467 291.509 30.2852 291.266 30.4238C291.059 30.5277 290.851 30.6489 290.643 30.7875C289.327 31.6188 287.924 32.6234 286.434 33.8011C284.945 34.9442 283.473 36.2258 282.018 37.646C280.563 39.0315 279.229 40.4864 278.017 42.0105C276.839 43.4999 275.887 44.9894 275.159 46.4789C274.467 47.9337 274.12 49.3366 274.12 50.6875C274.12 50.9299 274.224 51.1031 274.432 51.2071C274.64 51.311 274.83 51.3629 275.003 51.3629C276.216 51.3629 277.515 50.826 278.9 49.7522C280.32 48.6784 281.758 47.189 283.213 45.2838C284.702 43.3441 286.174 41.0752 287.629 38.4773C289.119 35.8794 290.556 33.0563 291.942 30.0081Z" fill="black"/>
<path d="M34.6167 14.4067C18.0822 15.9341 4.3764 25.662 3.47635 40.0687C0.819833 59.6605 22.8347 60.7783 33.6399 54.4754" stroke="black" stroke-width="6.30294" stroke-linecap="round"/>
<defs>
<clipPath id="clip0_8250_11452">
<rect width="84.7124" height="24.6436" fill="white" transform="translate(217.621 64.3281)"/>
</clipPath>
</defs>
</svg>
