<svg width="222" height="85" viewBox="0 0 222 85" fill="none" xmlns="http://www.w3.org/2000/svg">
<g clip-path="url(#clip0_7896_1455)">
<path fill-rule="evenodd" clip-rule="evenodd" d="M149.755 67.6151C149.755 67.6151 149.039 67.116 147.732 66.8664C146.001 66.5357 142.307 66.5827 140.827 63.8468C140.086 62.4646 140.185 61.3514 140.21 60.3281C140.21 60.3281 140.875 60.6716 142.697 60.8735C143.914 61.0081 149.783 60.962 149.755 67.6151Z" fill="#91D65C"/>
<path fill-rule="evenodd" clip-rule="evenodd" d="M178.095 68.1888V71.607C170.398 68.4136 170.669 79.6434 177.994 76.1749C177.994 77.2045 178.095 78.5259 178.095 79.556C162.7 84.6846 162.281 63.7718 178.093 68.1888" fill="#E62020"/>
<path d="M157.222 62.6705H151.757V80.046H157.222V62.6705Z" fill="#E62020"/>
<path d="M165.323 62.6954H159.511V66.8315H165.323V62.6954Z" fill="#E62020"/>
<path d="M165.323 68.0609H159.511V80.1326H165.323V68.0609Z" fill="#E62020"/>
<path fill-rule="evenodd" clip-rule="evenodd" d="M215.222 73.836C215.222 75.8482 214.628 76.4105 213.532 76.4105C212.436 76.4105 212.162 75.3153 212.162 75.3153V72.2681C212.162 72.2681 212.436 71.1737 213.532 71.1737C214.628 71.1737 215.222 71.7358 215.222 73.7478V73.836ZM213.519 67.9998C212.726 68.4063 212.198 68.9435 211.884 69.3428V68.0285H206.622V84.7613H211.884V78.0417C212.204 78.4431 212.74 79.0022 213.519 79.4631C214.834 80.2404 220.807 80.4131 220.999 74.8254V72.6364C220.807 67.0488 215.072 67.2031 213.519 67.9998Z" fill="#E62020"/>
<path fill-rule="evenodd" clip-rule="evenodd" d="M144.641 76.2276C144.641 76.2276 143.98 77.6145 142.447 77.6145C140.915 77.6145 140.224 73.9702 144.641 74.7123V76.2276ZM144.329 72.7307C144.329 72.7307 139.363 71.4054 137.276 74.1534C135.336 76.7084 136.307 79.8918 139.693 80.2423C142.825 80.5668 144.49 78.6392 144.49 78.6392L144.539 78.5968V80.0428H149.825V72.1361C149.825 72.1361 149.747 68.884 145.603 68.071C143.053 67.5712 138.558 68.1389 137.744 68.5634L137.695 71.7328C137.695 71.7328 139.516 70.7824 142.035 70.8345C143.244 70.8595 144.601 71.1092 144.502 72.7063L144.329 72.7307Z" fill="#E62020"/>
<path fill-rule="evenodd" clip-rule="evenodd" d="M201.744 68.5882C201.128 69.1122 200.783 69.6614 200.61 70.1603L200.611 68.0283H195.105V80.2072H200.907V75.3822C200.955 73.1803 202.045 72.6169 202.607 72.3566C203.422 71.9805 205.11 72.0319 205.11 72.0319V67.8031C203.051 67.715 202.293 68.123 201.744 68.5882Z" fill="#E62020"/>
<path fill-rule="evenodd" clip-rule="evenodd" d="M186.394 76.6737C185.156 76.6737 184.973 75.9181 184.973 73.6972C184.973 71.4782 185.208 71.0337 186.394 71.0337C187.582 71.0337 187.785 71.4782 187.785 73.6972C187.787 75.9179 187.636 76.6737 186.395 76.6737H186.394ZM186.546 67.7131C182.423 67.7131 179.081 69.4533 179.081 73.9473C179.081 78.7952 183.274 80.1821 186.546 80.1821C190.229 80.1821 194.011 78.72 194.011 73.9473C194.011 69.3387 190.667 67.7131 186.546 67.7131Z" fill="#E62020"/>
</g>
<path d="M70.5658 57.6499C69.2149 57.6499 68.2277 57.2862 67.6042 56.5587C66.9807 55.866 66.6689 54.4631 66.6689 52.3501C66.6689 50.5489 66.9633 48.2108 67.5522 45.3358C68.1411 42.4608 68.7992 39.3606 69.5266 36.0353C65.6817 40.3305 61.2479 43.0669 56.2253 44.2447C55.2208 46.323 54.0431 48.2281 52.6922 49.9601C51.3413 51.692 49.8691 53.0949 48.2757 54.1687C46.717 55.2078 45.089 55.7274 43.3917 55.7274C41.2787 55.7274 39.4602 55.0346 37.9361 53.6491C36.4466 52.2635 35.7018 50.1333 35.7018 47.2582C35.7018 45.3185 35.9963 43.6731 36.5851 42.3222C37.174 40.9367 37.8495 39.8975 38.6115 39.2047C37.988 37.8884 37.6763 36.3817 37.6763 34.6844C37.6763 32.3982 38.2998 30.3718 39.5468 28.6053C40.7937 26.8387 42.4391 25.4531 44.4828 24.4486C46.5611 23.4441 48.8126 22.9418 51.2373 22.9418C52.5883 22.9418 53.8699 23.2882 55.0822 23.981C56.3292 24.6391 57.3338 25.661 58.0958 27.0465C58.8925 28.3974 59.2909 30.112 59.2909 32.1904C59.2909 33.9223 59.0311 35.8274 58.5115 37.9058C60.9708 36.4509 63.3955 34.4592 65.7856 31.9306C68.2103 29.4019 70.3753 26.5616 72.2804 23.4094C72.8693 22.4742 73.7006 22.0066 74.7744 22.0066C75.675 22.0066 76.3851 22.2837 76.9047 22.8379C77.4589 23.3575 77.736 24.0503 77.736 24.9162C77.736 25.0894 77.6321 25.661 77.4242 26.6308C77.2164 27.6007 76.9393 28.865 76.5929 30.4238C76.2465 31.9479 75.8655 33.6279 75.4498 35.4637C75.0688 37.2996 74.6878 39.1701 74.3068 41.0752C73.9257 42.9803 73.5793 44.7816 73.2676 46.4789C74.1682 44.8508 75.1381 43.1189 76.1773 41.283C77.2511 39.4126 78.3595 37.5767 79.5026 35.7755C80.6457 33.9396 81.7714 32.277 82.8799 30.7875C83.9883 29.298 85.0101 28.1203 85.9454 27.2543C86.8806 26.3537 87.6773 25.9034 88.3355 25.9034C89.6517 25.9034 90.7602 26.2845 91.6608 27.0465C92.5614 27.8086 93.0117 28.5879 93.0117 29.3846C93.0117 30.1813 92.9251 31.411 92.7519 33.0737C92.5787 34.7363 92.3536 36.6068 92.0765 38.6851C91.834 40.7288 91.5742 42.7898 91.2971 44.8682C91.02 46.9465 90.7948 48.8343 90.6216 50.5316C90.4484 52.1943 90.3618 53.4413 90.3618 54.2726C90.3618 54.9654 90.0328 55.6235 89.3746 56.247C88.7165 56.8705 87.9718 57.1822 87.1404 57.1822C87.0712 57.1822 86.9499 57.1822 86.7767 57.1822C86.3611 57.2169 85.98 57.1476 85.6336 56.9744C85.2873 56.8359 84.9928 56.3163 84.7504 55.4157C84.5425 54.5151 84.4386 52.991 84.4386 50.8433C84.4386 49.3885 84.5079 47.7951 84.6464 46.0632C84.785 44.3313 84.9582 42.5993 85.166 40.8674C85.4085 39.1008 85.6683 37.4555 85.9454 35.9314C85.0448 37.4208 84.0403 39.1181 82.9318 41.0233C81.858 42.8937 80.7323 44.8162 79.5545 46.7906C78.3768 48.7304 77.2164 50.5316 76.0733 52.1943C74.9649 53.8223 73.9257 55.1386 72.9559 56.1431C72.0206 57.1476 71.2239 57.6499 70.5658 57.6499ZM51.0295 40.2958C51.4798 38.9449 51.8435 37.5421 52.1206 36.0872C52.3977 34.5978 52.5363 33.1429 52.5363 31.7227C52.5363 31.1339 52.4151 30.5623 52.1726 30.0081C51.9301 29.4539 51.5144 29.1768 50.9256 29.1768C49.7479 29.1768 48.5875 29.4193 47.4444 29.9042C46.336 30.3892 45.418 31.0819 44.6906 31.9825C43.9632 32.8831 43.5995 33.9569 43.5995 35.2039C43.5995 36.3124 43.9632 37.2476 44.6906 38.0097C45.4527 38.7717 46.3879 39.3433 47.4964 39.7243C48.6394 40.1053 49.7652 40.2958 50.8736 40.2958C50.9083 40.2958 50.9602 40.2958 51.0295 40.2958ZM48.8992 44.8682C47.6869 44.8335 46.5091 44.6776 45.3661 44.4005C44.223 44.0888 43.1838 43.6558 42.2486 43.1016C42.1447 43.6558 42.0407 44.1927 41.9368 44.7123C41.8329 45.1972 41.781 45.6649 41.781 46.1152C41.781 46.8772 41.9022 47.57 42.1447 48.1935C42.4218 48.7823 42.976 49.0768 43.8073 49.0768C44.6733 49.0768 45.5393 48.6957 46.4052 47.9337C47.3058 47.1716 48.1372 46.1498 48.8992 44.8682Z" fill="black"/>
<path d="M99.9281 56.7666C97.7805 56.7666 96.0486 56.0218 94.7323 54.5324C93.4161 53.0083 92.7579 50.5662 92.7579 47.2063C92.7579 45.0587 93.0004 42.9111 93.4853 40.7635C94.0049 38.5812 94.715 36.5202 95.6156 34.5804C96.5509 32.606 97.6247 30.8568 98.837 29.3327C100.084 27.8086 101.452 26.6135 102.942 25.7476C104.431 24.8469 105.973 24.3966 107.566 24.3966C110.268 24.3966 112.381 25.1241 113.905 26.5789C115.429 28.0337 116.191 29.8869 116.191 32.1384C116.191 33.8703 115.706 35.4464 114.736 36.8666C113.801 38.2522 112.519 39.4991 110.891 40.6076C109.263 41.716 107.445 42.7206 105.436 43.6212C103.427 44.5218 101.366 45.3358 99.2527 46.0632C99.0795 47.3102 98.9929 48.4186 98.9929 49.3885C98.9929 49.9774 99.322 50.2718 99.9801 50.2718C101.539 50.2718 103.202 50.0293 104.968 49.5444C106.769 49.0248 108.588 48.3667 110.424 47.57C112.26 46.7387 114.026 45.89 115.723 45.024C117.421 44.1234 118.962 43.2748 120.348 42.4781C121.768 41.6468 122.928 40.9886 123.829 40.5037C124.764 39.9841 125.37 39.7243 125.647 39.7243C126.409 39.7243 126.964 39.9495 127.31 40.3998C127.656 40.8501 127.83 41.335 127.83 41.8546C127.83 42.0971 127.362 42.634 126.427 43.4653C125.526 44.2966 124.279 45.2838 122.686 46.4269C121.127 47.5353 119.36 48.6957 117.386 49.9081C115.446 51.0858 113.42 52.2116 111.307 53.2854C109.229 54.3245 107.202 55.1559 105.228 55.7794C103.288 56.4375 101.522 56.7666 99.9281 56.7666ZM100.136 41.4389C101.556 40.6076 102.959 39.7416 104.345 38.841C105.765 37.9058 106.942 36.8666 107.878 35.7235C108.813 34.5458 109.281 33.1776 109.281 31.6188C109.281 31.1685 109.159 30.8741 108.917 30.7355C108.674 30.5623 108.328 30.4757 107.878 30.4757C106.665 30.4757 105.557 31.0126 104.552 32.0865C103.583 33.1603 102.717 34.5458 101.955 36.2431C101.227 37.9058 100.621 39.6377 100.136 41.4389Z" fill="black"/>
<path d="M130.663 56.4548C128.723 56.4548 127.043 56.0045 125.623 55.1039C124.203 54.2379 123.112 53.1122 122.35 51.7266C121.588 50.3064 121.207 48.8516 121.207 47.3622C121.207 44.8682 121.588 42.5647 122.35 40.4517C123.112 38.3041 124.116 36.3643 125.363 34.6324C126.61 32.8658 127.961 31.3071 129.416 29.9562C130.906 28.6053 132.343 27.4795 133.729 26.5789C135.149 25.6436 136.413 24.9509 137.522 24.5006C138.63 24.0156 139.444 23.7731 139.964 23.7731C140.899 23.7731 141.557 23.981 141.938 24.3966C142.354 24.7777 142.562 25.4185 142.562 26.3191C142.562 26.8387 142.18 27.4622 141.418 28.1896C140.691 28.917 139.721 29.7483 138.509 30.6836C137.331 31.6188 136.084 32.6753 134.768 33.853C133.452 35.0307 132.187 36.347 130.975 37.8018C129.797 39.2567 128.827 40.8501 128.065 42.582C127.338 44.3139 126.974 46.2018 126.974 48.2454C126.974 49.0075 127.113 49.5964 127.39 50.012C127.701 50.4277 128.204 50.6355 128.897 50.6355C130.871 50.6355 132.984 50.2891 135.235 49.5964C137.522 48.8689 139.79 47.9683 142.042 46.8945C144.328 45.7861 146.476 44.643 148.485 43.4653C150.528 42.2876 152.278 41.2311 153.733 40.2958C154.321 39.8802 154.824 39.5511 155.239 39.3086C155.655 39.0662 155.949 38.9449 156.123 38.9449C157.162 38.9449 157.681 39.4818 157.681 40.5556C157.681 41.1099 157.266 41.8546 156.434 42.7898C155.464 44.0022 154.148 45.2492 152.486 46.5308C150.857 47.8125 149.039 49.0421 147.03 50.2198C145.056 51.3976 143.029 52.4541 140.951 53.3893C138.907 54.3245 136.985 55.0693 135.183 55.6235C133.382 56.1777 131.875 56.4548 130.663 56.4548ZM191.332 28.8131C191.332 29.2288 191.193 29.5925 190.916 29.9042C190.639 30.216 190.292 30.4584 189.877 30.6316C189.288 30.8741 188.266 31.1858 186.811 31.5669C185.356 31.9479 183.59 32.3809 181.511 32.8658C179.468 33.3508 177.268 33.853 174.913 34.3726C172.557 34.8576 170.202 35.3252 167.846 35.7755C166.946 39.1008 166.028 42.53 165.093 46.0632C164.157 49.5617 163.222 53.0083 162.287 56.4029C161.941 57.6152 161.525 58.5332 161.04 59.1567C160.555 59.8148 159.724 60.1439 158.546 60.1439C157.264 60.1439 156.398 59.7282 155.948 58.8969C155.532 58.1002 155.48 57.009 155.792 55.6235C156.693 51.8479 157.524 48.332 158.286 45.076C159.083 41.8199 159.724 39.1874 160.209 37.1784C158.13 37.5247 156.312 37.8018 154.753 38.0097C153.194 38.1829 152.086 38.2522 151.428 38.2175C150.7 38.1482 150.094 37.8538 149.609 37.3342C149.124 36.8146 148.899 36.1738 148.934 35.4118C149.003 34.719 149.315 34.1301 149.869 33.6452C150.423 33.1256 151.081 32.8139 151.843 32.7099C152.917 32.606 154.303 32.4502 156 32.2423C157.697 32.0345 159.568 31.792 161.611 31.5149C162.062 29.7483 162.581 27.9298 163.17 26.0593C163.759 24.1542 164.365 22.3356 164.989 20.6037C165.647 18.8371 166.27 17.2957 166.859 15.9794C167.448 14.6631 167.985 13.7106 168.47 13.1217C168.851 12.6714 169.319 12.325 169.873 12.0826C170.462 11.8401 171.033 11.7189 171.587 11.7189C172.315 11.7189 172.904 11.9786 173.354 12.4982C173.804 13.0178 174.029 13.624 174.029 14.3168C174.029 14.5939 174.012 14.8883 173.978 15.2001C173.943 15.4772 173.874 15.7543 173.77 16.0314C173.112 17.7633 172.401 19.859 171.639 22.3183C170.912 24.7777 170.15 27.4795 169.353 30.4238C171.951 30.0428 174.497 29.6617 176.991 29.2807C179.52 28.865 181.806 28.484 183.85 28.1376C185.928 27.7566 187.591 27.4275 188.838 27.1504C189.53 26.908 190.119 26.9599 190.604 27.3063C191.089 27.618 191.332 28.1203 191.332 28.8131Z" fill="black"/>
<path d="M179.77 58.7752C178.661 58.7752 177.657 58.4634 176.756 57.8399C175.855 57.2511 175.145 56.4717 174.626 55.5018C174.106 54.4973 173.846 53.4235 173.846 52.2804C173.846 50.1328 174.314 48.0372 175.249 45.9935C176.219 43.9498 177.483 42.01 179.042 40.1742C180.601 38.3383 182.298 36.6583 184.134 35.1342C186.005 33.5755 187.858 32.2419 189.694 31.1335C191.564 30.025 193.261 29.159 194.785 28.5355C196.344 27.912 197.557 27.6003 198.423 27.6003C199.427 27.6003 200.241 27.8254 200.865 28.2758C201.523 28.6914 201.852 29.3496 201.852 30.2502C201.852 30.5273 201.783 30.7524 201.644 30.9256C202.094 31.0295 202.458 31.2893 202.735 31.705C203.012 32.1207 203.151 32.7442 203.151 33.5755C203.151 33.9219 203.064 34.8225 202.891 36.2773C202.718 37.7321 202.527 39.4987 202.319 41.577C202.146 43.6554 202.06 45.8203 202.06 48.0718C202.06 48.4182 202.112 48.7299 202.215 49.0071C202.319 49.2495 202.545 49.3708 202.891 49.3708C204.276 49.3708 205.679 49.0937 207.1 48.5394C208.554 47.9506 209.957 47.2405 211.308 46.4091C212.694 45.5432 213.941 44.6945 215.049 43.8632C216.192 42.9972 217.145 42.2871 217.907 41.7329C218.704 41.1441 219.223 40.8496 219.466 40.8496C220.643 40.8496 221.232 41.4385 221.232 42.6162C221.232 42.928 220.851 43.5861 220.089 44.5906C219.362 45.5605 218.357 46.6863 217.076 47.9679C215.794 49.2149 214.356 50.4619 212.763 51.7089C211.204 52.9212 209.576 53.9258 207.879 54.7225C206.216 55.5191 204.606 55.9175 203.047 55.9175C201.142 55.9175 199.687 55.4672 198.682 54.5666C197.712 53.666 197.02 52.4536 196.604 50.9295C196.223 49.3708 196.015 47.6215 195.981 45.6817C194.214 48.2104 192.378 50.4619 190.473 52.4363C188.602 54.3761 186.749 55.9175 184.913 57.0606C183.078 58.2037 181.363 58.7752 179.77 58.7752ZM198.163 32.7442C194.768 34.3722 191.72 36.2427 189.018 38.3556C186.316 40.434 184.169 42.6162 182.575 44.9024C181.017 47.1885 180.237 49.3881 180.237 51.501C180.237 52.0899 180.514 52.3843 181.069 52.3843C181.727 52.3843 182.593 52.0033 183.666 51.2413C184.775 50.4792 185.97 49.4747 187.252 48.2277C188.533 46.9461 189.815 45.5259 191.096 43.9671C192.378 42.3737 193.573 40.7457 194.682 39.083C195.79 37.4204 196.673 35.827 197.331 34.3029C197.574 33.7487 197.851 33.2291 198.163 32.7442Z" fill="black"/>
<path d="M34.6167 14.4067C18.0822 15.9341 4.3764 25.662 3.47635 40.0687C0.819833 59.6605 22.8347 60.7783 33.6399 54.4754" stroke="black" stroke-width="6.30294" stroke-linecap="round"/>
<defs>
<clipPath id="clip0_7896_1455">
<rect width="84.7124" height="24.6436" fill="white" transform="translate(136.287 60.3281)"/>
</clipPath>
</defs>
</svg>
